<svg xmlns="http://www.w3.org/2000/svg" viewBox="0 0 173.77 34.36"><defs><style>.cls-1{fill:#ff4a57;}</style></defs><title>Asset 5</title><g id="Layer_2" data-name="Layer 2"><g id="デザイン"><path class="cls-1" d="M0,1.52C0,.51.46,0,1.37,0H4c.81,0,1.22.51,1.22,1.52V11.88q8.54,2.4,17.1,5.37c.71.26.88.85.5,1.79l-.84,2.14c-.33.71-1.15.83-2.44.38A128,128,0,0,0,5.18,17.21V32.75c0,.92-.41,1.38-1.22,1.38H1.37A1.22,1.22,0,0,1,0,32.75Z"/><path class="cls-1" d="M31.79,3.2c0-1,.36-1.52,1.07-1.52h3c.61,0,.91.66.91,2V12A52.72,52.72,0,0,0,52.4,6.09c.89-.48,1.57-.48,2.05,0l1.87,2.29c.56.66.46,1.22-.3,1.67a88.88,88.88,0,0,1-19.24,7.47v8.23c0,.86.47,1.32,1.41,1.37a171.84,171.84,0,0,0,19.16-.31c.74,0,1.12.26,1.14.92l.08,3c0,.66-.38,1-1.14,1.07a199.69,199.69,0,0,1-20.8.3c-3.22-.12-4.84-1.65-4.84-4.57Z"/><path class="cls-1" d="M71.81,19.73c-.81-1.83-1.68-3.59-2.62-5.3-.38-.71-.13-1.24.76-1.6l1.6-.57c.89-.35,1.48-.22,1.79.38.81,1.53,1.64,3.2,2.47,5a1.16,1.16,0,0,1-.72,1.75l-1.75.73Q72.2,20.53,71.81,19.73ZM94.13,11.2c.84.12,1.13.77.88,1.94Q92.12,28.14,77,34.2c-.77.31-1.31.18-1.64-.38L74,31.46c-.46-.76-.12-1.33,1-1.71q13-5,15.38-17.6c.16-.91.55-1.33,1.18-1.26ZM81.76,9.67a20.23,20.23,0,0,1,2.47,4.84,1.25,1.25,0,0,1-.69,1.64l-1.48.8q-1.26.57-1.68-.57a53.24,53.24,0,0,0-2.32-4.8,1,1,0,0,1,.5-1.49l1.67-.68C80.92,9.1,81.43,9.19,81.76,9.67Z"/><path class="cls-1" d="M113.44,2.29c0-.51.5-.77,1.37-.77h17.36a3.82,3.82,0,0,1,2,.46L136,3.05a1,1,0,0,1,.31,1.37,95,95,0,0,1-5.13,11.79,39.49,39.49,0,0,1-8.47,11A30.92,30.92,0,0,1,111,34.13c-1,.3-1.75.2-2.13-.31l-1.68-2.28q-.8-1.18.15-1.53a32.38,32.38,0,0,0,10.3-5.5,33.65,33.65,0,0,0,8.17-9.31,39.53,39.53,0,0,0,4.38-9.41H117.7a19.58,19.58,0,0,1-4.25,7.41,24.43,24.43,0,0,1-5.8,5.08,1.55,1.55,0,0,1-1.68,0l-2.44-1.83c-.48-.45-.38-.91.31-1.37Q112.71,8.8,113.44,2.29Z"/><path class="cls-1" d="M143.63,2.44a1,1,0,0,1,1.07-1.07h20.11a5.67,5.67,0,0,1,2.89.92l1.52,1.06c.56.43.66,1.13.31,2.1a53.41,53.41,0,0,1-7.47,13.14Q168,24.38,173.41,30a1,1,0,0,1,0,1.45l-2.7,2.36c-.36.28-.89.09-1.6-.57q-5.52-5.52-10.59-11a62.68,62.68,0,0,1-14.24,10.55.91.91,0,0,1-1.22-.15l-2.71-3.24c-.23-.3.07-.63.88-1a50.81,50.81,0,0,0,13.82-9.61,45.18,45.18,0,0,0,8.65-12.55H144.85c-.81,0-1.22-.58-1.22-1.72Z"/></g></g></svg>